<svg version="1.1" xmlns="http://www.w3.org/2000/svg" viewBox="0 0 1411.6664886474605 993.1311460257162" width="4234.999465942381" height="2979.393438077149">
  <!-- svg-source:excalidraw -->
  
  <defs>
    <style class="style-fonts">
      @font-face {
        font-family: "Virgil";
        src: url("https://excalidraw.com/Virgil.woff2");
      }
      @font-face {
        font-family: "Cascadia";
        src: url("https://excalidraw.com/Cascadia.woff2");
      }
    </style>
  </defs>
  <rect x="0" y="0" width="1411.6664886474605" height="993.1311460257162" fill="#ffffff"></rect><g stroke-opacity="0.3" fill-opacity="0.3" stroke-linecap="round" transform="translate(10 183.13127318229203) rotate(0 695.8332443237302 399.9999364217121)"><path d="M-2.48 3.11 L1390.22 1.03 L1393.59 803.14 L-3.94 796.2" stroke="none" stroke-width="0" fill="#ced4da"></path><path d="M-1.26 1.43 C448.94 -4.8, 898.23 -5.83, 1390.62 -0.76 M-0.23 -0.63 C296.88 2.86, 594.85 2.44, 1392.26 0.74 M1391.52 -1.19 C1384.76 181.03, 1386.19 361.33, 1392.08 799.55 M1391.87 0.59 C1387.31 270.2, 1385.96 539.9, 1392.44 799.44 M1392.11 799.08 C1008.11 791.14, 626.62 789.9, 1.58 798.67 M1391.21 800.67 C866.8 792.15, 341.09 791.47, 0.11 800.02 M-0.54 800.44 C4.47 612.26, 4.99 425.8, -1.07 -0.69 M-0.71 799.93 C1.74 499.9, 0.79 200.42, -0.12 -0.6" stroke="#000000" stroke-width="1" fill="none"></path></g><g stroke-opacity="0.5" fill-opacity="0.5" stroke-linecap="round" transform="translate(167.50003814697197 264.79783812369845) rotate(0 539.9999618530272 255.83330790201808)"><path d="M3.11 -1.44 L1081.03 1.93 L1083.14 507.72 L-3.8 510.16" stroke="none" stroke-width="0" fill="#ced4da"></path><path d="M1.43 -0.68 C218 5.82, 433.49 5.77, 1079.24 -1.38 M-0.63 -0.21 C341.65 3.15, 682.35 3.07, 1080.74 -0.59 M1078.81 -1.24 C1082.01 108.35, 1081.76 216.72, 1079.55 512.27 M1080.59 0.6 C1079.12 113.15, 1078.69 228.58, 1079.44 511.46 M1079.08 510.35 C713.02 513.5, 344.06 515.66, -1.33 512.91 M1080.67 512.26 C798.55 507.08, 515.92 506.85, 0.02 511.13 M0.44 511.14 C1.66 398.08, 1.82 283.44, -0.69 1.2 M-0.07 512.14 C3.31 367.82, 3.92 224.81, -0.6 -0.5" stroke="#000000" stroke-width="1" fill="none"></path></g><g stroke-linecap="round" transform="translate(358.70595332554353 573.1102036093407) rotate(0 169.57081560787253 23)"><path d="M-0.75 -0.34 L337.16 -1.12 L339.56 46.46 L-0.71 46.02" stroke="none" stroke-width="0" fill="#4c6ef5"></path><path d="M-1.16 0.21 C111.19 0.7, 221.89 0.73, 340.01 1.13 M-0.5 -0.59 C106.06 -2.17, 211.13 -2.62, 339.35 0.08 M339.89 -1.55 C338.8 15.01, 340.74 30.5, 339.31 44.11 M338.89 0.4 C338.73 12, 339.02 22.63, 339.61 45.64 M340.18 45.48 C246.88 43.35, 157.75 45.11, 0.83 46.58 M338.7 45.48 C245.04 45.84, 152.04 45.84, -0.47 46 M1.5 45.6 C-1.31 33.21, 0.14 25.13, -0.02 -1.19 M-0.62 46.78 C-0.29 29.01, 0.55 12.29, -0.99 -0.95" stroke="#364fc7" stroke-width="1" fill="none"></path></g><g transform="translate(444.4434356000826 585.1102036093407) rotate(0 87.99999999999994 11)"><text x="88" y="18" font-family="Cascadia, Segoe UI Emoji" font-size="18.692810457516327px" fill="#ffffff" text-anchor="middle" style="white-space: pre;" direction="ltr">back-end(nestjs)</text></g><g stroke-linecap="round" transform="translate(564.5481658208928 76.54369681568642) rotate(0 167.00001017252612 23)"><path d="M9.93 -0.52 L326.49 1.87 L329.75 3.1 L335.14 4.98 L332.05 37.94 L330.94 41.64 L320.96 46.61 L9.05 46.13 L3.39 42.56 L1.47 37.98 L-0.46 12.01 L4.36 4.37 L11.67 -1.89" stroke="none" stroke-width="0" fill="#ced4da"></path><path d="M11.5 0 M11.5 0 C90.41 2.13, 168.82 1.95, 322.5 0 M11.5 0 C86.75 -1.26, 163.21 -1.63, 322.5 0 M322.5 0 C331.72 -0.78, 332.5 2.69, 334 11.5 M322.5 0 C332.1 1.71, 335.42 4.83, 334 11.5 M334 11.5 C332.7 16.29, 332.67 23.53, 334 34.5 M334 11.5 C333.92 18.44, 333.26 26.15, 334 34.5 M334 34.5 C335.5 41.77, 328.55 44.23, 322.5 46 M334 34.5 C333.81 43.53, 330.15 44.63, 322.5 46 M322.5 46 C205 45.45, 88.75 44.71, 11.5 46 M322.5 46 C213.54 43.54, 105.82 43.1, 11.5 46 M11.5 46 C2.72 46.42, 0.46 41.46, 0 34.5 M11.5 46 C3.86 44, 1.31 44.29, 0 34.5 M0 34.5 C-0.27 29.31, 1.92 26.32, 0 11.5 M0 34.5 C0.3 28.52, 0.64 23.49, 0 11.5 M0 11.5 C0.72 3.86, 2.53 -0.72, 11.5 0 M0 11.5 C1.13 3.89, 3.83 0.68, 11.5 0" stroke="#000000" stroke-width="1" fill="none"></path></g><g transform="translate(584.5481759934189 87.54369681568642) rotate(0 147 12)"><text x="147" y="19" font-family="Cascadia, Segoe UI Emoji" font-size="20px" fill="#000000" text-anchor="middle" style="white-space: pre;" direction="ltr">https://turbo.sa.ngrok.io</text></g><g transform="translate(657.5956526256732 807.741284772105) rotate(0 51 17.5)"><text x="51" y="25" font-family="Virgil, Segoe UI Emoji" font-size="27.950668351760285px" fill="#000000" text-anchor="middle" style="white-space: pre;" direction="ltr">Volumes</text></g><g transform="translate(643.2622379121317 288.74120339189716) rotate(0 72 17.5)"><text x="72" y="25" font-family="Virgil, Segoe UI Emoji" font-size="27.950668351760285px" fill="#000000" text-anchor="middle" style="white-space: pre;" direction="ltr">Containers</text></g><g transform="translate(312.16675567626885 295.7977236827805) rotate(0 82 12)"><text x="82" y="19" font-family="Cascadia, Segoe UI Emoji" font-size="19.82485047861702px" fill="#000000" text-anchor="middle" style="white-space: pre;" direction="ltr">Docker Network</text></g><g transform="translate(178.16657765706327 203.91393638941526) rotate(0 76 12)"><text x="76" y="19" font-family="Cascadia, Segoe UI Emoji" font-size="19.82485047861702px" fill="#000000" text-anchor="middle" style="white-space: pre;" direction="ltr">Computer Host</text></g><g transform="translate(676.2870658692004 10) rotate(0 58.5 12)"><text x="58.5" y="19" font-family="Cascadia, Segoe UI Emoji" font-size="19.82485047861702px" fill="#000000" text-anchor="middle" style="white-space: pre;" direction="ltr">Public URL</text></g><g transform="translate(857.166577657064 28.732239679525037) rotate(0 17 17)"><text x="17" y="27" font-family="Cascadia, Segoe UI Emoji" font-size="27.916634877522807px" fill="#000000" text-anchor="middle" style="white-space: pre;" direction="ltr">80</text></g><g stroke-linecap="round" transform="translate(355.94001479375925 458.45892905373415) rotate(0 358.11115519205725 23)"><path d="M0.48 -1.98 L714.79 1.91 L715.09 44.37 L1.08 44.73" stroke="none" stroke-width="0" fill="#fab005"></path><path d="M-0.48 0.75 C165.69 1.49, 331.7 1.17, 716.49 0.33 M0.08 0.11 C250.93 -1.61, 501.73 -1.98, 716.52 -0.38 M716.99 1.18 C714.03 10.93, 716.85 18.95, 714.74 47.96 M717.08 0.39 C716.98 13.69, 717.39 28.17, 717.22 45.87 M716.04 45.28 C549.14 47.86, 383.02 48.78, -0.72 46.08 M715.99 45.79 C481.51 46.72, 245.9 46.4, -0.36 45.88 M0.33 47.88 C-1.67 28.99, -0.4 13.46, 0.69 1.2 M-0.75 46.08 C-0.66 32.9, -0.76 19.12, -0.25 0.23" stroke="#e67700" stroke-width="1" fill="none"></path></g><g transform="translate(691.5511699858166 467.2922623870675) rotate(0 22.5 12.5)"><text x="22.5" y="18" font-family="Virgil, Segoe UI Emoji" font-size="20px" fill="#000000" text-anchor="middle" style="white-space: pre;" direction="ltr">nginx</text></g><g transform="translate(1003.6141707405211 417.20102857349406) rotate(0 33 17)"><text x="66" y="27" font-family="Cascadia, Segoe UI Emoji" font-size="27.916634877522807px" fill="#000000" text-anchor="end" style="white-space: pre;" direction="ltr">7000</text></g><g transform="translate(1035.614170740521 298.73223967952504) rotate(0 17 17)"><text x="34" y="27" font-family="Cascadia, Segoe UI Emoji" font-size="27.916634877522807px" fill="#000000" text-anchor="end" style="white-space: pre;" direction="ltr">80</text></g><g stroke-linecap="round" transform="translate(744.5957620491913 573.9435369426742) rotate(0 164.57081560787265 22.16666666666663)"><path d="M0.43 1.18 L330.16 -1.8 L328.76 44.65 L0.06 44.03" stroke="none" stroke-width="0" fill="#4c6ef5"></path><path d="M0.37 -0.84 C67.78 0.51, 136.23 2.24, 328.18 1.35 M-0.28 0.52 C75.94 -0.01, 151.4 -0.54, 328.67 0.02 M327.23 0.6 C327.78 18.9, 329.39 34.86, 327.3 44.08 M328.2 -0.26 C328.7 9.61, 329.25 19.14, 328.66 44.74 M330.48 43.46 C257.68 42.52, 185.56 43.52, 0.89 44.62 M328.9 44.34 C222.16 44.82, 116.62 44.43, 0.62 44.02 M-1.9 44.32 C-2.04 31.75, -0.82 18.67, 1.29 0.47 M0.98 43.52 C-1.16 30.12, -0.2 14.34, 0.52 0.41" stroke="#364fc7" stroke-width="1" fill="none"></path></g><g transform="translate(806.8332443237309 585.1102036093407) rotate(0 99 11)"><text x="99" y="18" font-family="Cascadia, Segoe UI Emoji" font-size="18.692810457516327px" fill="#ffffff" text-anchor="middle" style="white-space: pre;" direction="ltr">front-end(reactjs)</text></g><g transform="translate(631.1665776570642 530.3989063461917) rotate(0 33 17)"><text x="66" y="27" font-family="Cascadia, Segoe UI Emoji" font-size="27.916634877522807px" fill="#000000" text-anchor="end" style="white-space: pre;" direction="ltr">3000</text></g><g transform="translate(1002.8332443237312 533.7322396795252) rotate(0 33 17)"><text x="66" y="27" font-family="Cascadia, Segoe UI Emoji" font-size="27.916634877522807px" fill="#000000" text-anchor="end" style="white-space: pre;" direction="ltr">8080</text></g><g stroke-linecap="round" transform="translate(361.26242871585805 680.754554977766) rotate(0 169.57081560787253 22.999999999999986)"><path d="M-1.16 -0.09 L340.47 0.88 L340.9 47.46 L0.46 45.01" stroke="none" stroke-width="0" fill="#fa5252"></path><path d="M-0.86 -1.07 C87.64 -0.9, 177.59 -0.79, 338.31 0.89 M-0.28 0.45 C93.23 0.51, 188.23 0.56, 338.66 -0.42 M337.45 1.75 C338.71 12.39, 339.81 26.38, 340.03 45.02 M338.95 0.92 C339.36 11.46, 340 22.79, 338.35 45.6 M340.12 44.96 C266.51 47.52, 193.75 47.71, -1.25 46.02 M338.77 45.77 C241.82 47.71, 144.55 46.79, 0.31 46.56 M1.58 47.34 C-0.97 30.28, 0.76 12.66, 0.87 0.72 M-0.51 46.74 C-0.22 32.57, 0.31 19.53, 0.69 0.77" stroke="#c92a2a" stroke-width="1" fill="none"></path></g><g transform="translate(424.999910990397 692.754554977766) rotate(0 110 11)"><text x="110" y="18" font-family="Cascadia, Segoe UI Emoji" font-size="18.692810457516327px" fill="#ffffff" text-anchor="middle" style="white-space: pre;" direction="ltr">database(PostgreSQL)</text></g><g transform="translate(633.7230530473787 638.0432577146169) rotate(0 33 17)"><text x="66" y="27" font-family="Cascadia, Segoe UI Emoji" font-size="27.916634877522807px" fill="#000000" text-anchor="end" style="white-space: pre;" direction="ltr">5432</text></g><g stroke-linecap="round" transform="translate(356.650857687368 870.7545549777661) rotate(0 169.57081560787265 23)"><path d="M12.34 -0.54 L332.22 0.75 L335.19 0.81 L339.82 6.39 L338.13 39.15 L337.97 42.31 L326.5 44.26 L10.28 44.45 L1.16 41.75 L-0.39 39.04 L-1.35 11.03 L4.54 0.9 L13.18 1.42" stroke="none" stroke-width="0" fill="#12b886"></path><path d="M11.5 0 M11.5 0 C122.08 1.68, 234.24 1.35, 327.64 0 M11.5 0 C133.81 -0.42, 256.86 0.16, 327.64 0 M327.64 0 C337.11 -1.36, 340.46 2.25, 339.14 11.5 M327.64 0 C333.92 -1.1, 339.26 5.52, 339.14 11.5 M339.14 11.5 C337.72 17.34, 340.05 25.78, 339.14 34.5 M339.14 11.5 C340.05 16.83, 339.44 20.68, 339.14 34.5 M339.14 34.5 C340.39 40.73, 335.55 44.18, 327.64 46 M339.14 34.5 C339.56 42.32, 336.49 47.59, 327.64 46 M327.64 46 C219.05 44.92, 109.29 44.59, 11.5 46 M327.64 46 C208.92 47.12, 90.52 47.91, 11.5 46 M11.5 46 C4.24 45.39, 0.67 42.9, 0 34.5 M11.5 46 C3.25 46.17, 1.48 40.1, 0 34.5 M0 34.5 C0.92 31.14, 1.06 27.04, 0 11.5 M0 34.5 C0.25 25.71, 0.75 18.13, 0 11.5 M0 11.5 C-1.09 1.93, 2.07 1.89, 11.5 0 M0 11.5 C-0.42 2.62, 6.08 -1.18, 11.5 0" stroke="#087f5b" stroke-width="1" fill="none"></path></g><g transform="translate(398.3883399619069 882.7545549777661) rotate(0 132 11)"><text x="132" y="18" font-family="Cascadia, Segoe UI Emoji" font-size="18.692810457516327px" fill="#000000" text-anchor="middle" style="white-space: pre;" direction="ltr">/var/lib/postgresql/data</text></g><g stroke-linecap="round" transform="translate(742.5406664110158 871.5878883110995) rotate(0 164.57081560787276 22.16666666666663)"><path d="M12.97 0.57 L318.6 -0.8 L327.77 2.69 L327.62 8.18 L330.85 32.43 L325.23 39.82 L319.53 42.96 L9.37 42.96 L1.66 41.07 L-1.35 32.78 L2.36 4.26 L4.45 4.19 L12.14 -0.64" stroke="none" stroke-width="0" fill="#12b886"></path><path d="M11.08 0 M11.08 0 C97.61 -1.05, 185.91 -1.8, 318.06 0 M11.08 0 C103.43 1.35, 197.62 0.64, 318.06 0 M318.06 0 C326.76 -1.58, 327.94 2.74, 329.14 11.08 M318.06 0 C325.57 1.68, 329.16 1.92, 329.14 11.08 M329.14 11.08 C330.09 19.46, 327.26 28.45, 329.14 33.25 M329.14 11.08 C329.43 16.2, 329.93 21.78, 329.14 33.25 M329.14 33.25 C329.38 38.82, 325.81 44.47, 318.06 44.33 M329.14 33.25 C330.33 42.23, 326.47 46, 318.06 44.33 M318.06 44.33 C244.83 44.85, 173.69 43.58, 11.08 44.33 M318.06 44.33 C203.53 42.92, 88.49 42.44, 11.08 44.33 M11.08 44.33 C4.36 45.07, -0.51 40.79, 0 33.25 M11.08 44.33 C5.18 42.26, -2.3 39.14, 0 33.25 M0 33.25 C0.82 28.3, 0.97 20.88, 0 11.08 M0 33.25 C0.78 27.96, -0.63 22.02, 0 11.08 M0 11.08 C-1.77 5.59, 3.33 -1.06, 11.08 0 M0 11.08 C2.25 2.51, 5.85 1.91, 11.08 0" stroke="#087f5b" stroke-width="1" fill="none"></path></g><g transform="translate(788.2781486855554 882.7545549777661) rotate(0 115.5 11)"><text x="115.5" y="18" font-family="Cascadia, Segoe UI Emoji" font-size="18.692810457516327px" fill="#000000" text-anchor="middle" style="white-space: pre;" direction="ltr">/back/uploads(images)</text></g><g stroke-linecap="round"><g transform="translate(720.8332443237323 135.73223967952504) rotate(0 -0.22688094263435232 154.84559846433493)"><path d="M-0.55 0.8 C-0.56 52.11, 0.18 257.69, 0.09 308.89" stroke="#000000" stroke-width="2.5" fill="none" stroke-dasharray="8 10"></path></g></g><mask></mask><g stroke-linecap="round" transform="translate(355.94001479375936 346.86124880698236) rotate(0 358.1111551920573 23)"><path d="M-0.72 0.52 L717.19 1.57 L714.25 44.1 L-0.75 45.66" stroke="none" stroke-width="0" fill="#82c91e"></path><path d="M-0.34 0.74 C254.8 -2.33, 510.07 -2.94, 715.53 0.13 M-0.1 0.26 C200.12 2.3, 399.85 2.62, 715.93 -0.35 M714.68 0.61 C716.43 15.81, 716.7 30.45, 716.98 44.45 M716.97 0.08 C715.4 12.28, 717.31 24.77, 715.97 46.4 M715.56 46.37 C562.89 44.11, 410.92 43.69, 0.62 45.69 M716.52 46.25 C555.19 48.32, 393.88 48.42, -0.27 45.69 M-0.66 44.59 C0.15 34.13, -1.18 23.8, 1.5 -0.4 M0.59 45.99 C-0.19 36.68, 0.26 25.11, -0.62 0.78" stroke="#5c940d" stroke-width="1" fill="none"></path></g><g transform="translate(689.0511699858166 357.36124880698236) rotate(0 25 12.5)"><text x="25" y="18" font-family="Virgil, Segoe UI Emoji" font-size="20px" fill="#000000" text-anchor="middle" style="white-space: pre;" direction="ltr">ngrok</text></g><g stroke-linecap="round"><g transform="translate(702.0613447890421 515.7621550002435) rotate(0 -95.87896460901766 22.158597552165574)"><path d="M-1.13 -0.97 C-32.97 6.51, -158.88 37.56, -190.62 45.28" stroke="#000000" stroke-width="2.5" fill="none" stroke-dasharray="8 10"></path></g></g><mask></mask><g stroke-linecap="round"><g transform="translate(742.4999109903993 512.3989063461916) rotate(0 83.07806178468809 26.016386741172763)"><path d="M0.21 0.74 C28.01 9.43, 138.44 42.94, 165.95 51.29" stroke="#000000" stroke-width="2.5" fill="none" stroke-dasharray="8 10"></path></g></g><mask></mask><g stroke-linecap="round"><g transform="translate(512.4999109903991 625.7322396795245) rotate(0 -0.15864405645703528 23.967204552019666)"><path d="M-0.23 0.17 C-0.28 8.24, 0.03 39.64, -0.12 47.76" stroke="#000000" stroke-width="2.5" fill="none" stroke-dasharray="8 10"></path></g></g><mask></mask><g stroke-linecap="round"><g transform="translate(704.1665776570658 595.7322396795245) rotate(0 8.368384886148078 -0.20398003578185353)"><path d="M0.22 0.03 C3.34 -0.26, 14.78 -0.61, 17.86 -0.62 M-1.13 -1 C1.88 -0.63, 13.45 0.21, 16.67 0.59" stroke="#000000" stroke-width="1" fill="none"></path></g></g><mask></mask><g stroke-linecap="round"><g transform="translate(722.4999109903993 595.7322396795245) rotate(0 0.46674607559418746 58.35241124987601)"><path d="M0.94 0.72 C1.01 19.91, 0.9 95.97, 0.64 115.08 M-0.02 0.05 C-0.08 19.46, 0.31 97.8, 0.04 116.66" stroke="#000000" stroke-width="1" fill="none"></path></g></g><mask></mask><g stroke-linecap="round"><g transform="translate(724.1665776570658 710.7322396795245) rotate(0 91.53537802280255 0.17044957553301288)"><path d="M1.16 0.27 C31.55 0.08, 152.84 -0.32, 182.76 -0.37 M0.31 -0.64 C30.6 -0.71, 151.93 0.65, 182.38 0.98" stroke="#000000" stroke-width="1" fill="none"></path></g></g><mask></mask><g stroke-linecap="round"><g transform="translate(905.8332443237327 712.3989063461911) rotate(0 -0.2665921633212065 74.12383061059444)"><path d="M0.51 0.56 C0.62 24.98, 0.25 122.58, -0.01 147.39 M-0.68 -0.19 C-0.68 24.28, -1.29 123.79, -0.97 148.44" stroke="#000000" stroke-width="1" fill="none"></path></g></g><mask></mask><g stroke-linecap="round"><g transform="translate(512.4999109903991 739.0655730128578) rotate(0 -0.13594801373579912 58.71628857511405)"><path d="M0.55 1.01 C0.68 20.33, 0.21 96.58, 0.07 115.83 M-0.62 0.5 C-0.58 19.95, -0.75 97.38, -0.84 116.93" stroke="#000000" stroke-width="1" fill="none"></path></g></g><mask></mask></svg>